<mxfile modified="2022-05-04T22:11:50.551Z" host="app.diagrams.net" agent="5.0 (Windows NT 10.0; Win64; x64) AppleWebKit/537.36 (KHTML, like Gecko) Chrome/100.0.4896.127 Safari/537.36 Edg/100.0.1185.50" etag="hZ5ITbcRxakPI0ei25BQ" compressed="false" version="17.5.0" type="google">
  <diagram name="DEPLOYMENT VIEW" id="85UZ2OnyFOQod6YxbiIE">
    <mxGraphModel grid="1" page="1" gridSize="10" guides="1" tooltips="1" connect="1" arrows="1" fold="1" pageScale="1" pageWidth="827" pageHeight="1169" math="0" shadow="0">
      <root>
        <mxCell id="j9TuQSvZm4gu6ATYUapO-0" />
        <mxCell id="j9TuQSvZm4gu6ATYUapO-1" value="Title" style="" parent="j9TuQSvZm4gu6ATYUapO-0" />
        <mxCell id="j9TuQSvZm4gu6ATYUapO-2" value="Deployment View" style="text;html=1;strokeColor=none;fillColor=none;align=center;verticalAlign=middle;whiteSpace=wrap;rounded=0;fontSize=48;opacity=30;" vertex="1" parent="j9TuQSvZm4gu6ATYUapO-1">
          <mxGeometry x="160" y="200" width="480" height="320" as="geometry" />
        </mxCell>
        <mxCell id="j9TuQSvZm4gu6ATYUapO-3" value="About" style="" parent="j9TuQSvZm4gu6ATYUapO-0" />
      </root>
    </mxGraphModel>
  </diagram>
</mxfile>
